<?xml version="1.0" standalone="no"?>
<!DOCTYPE svg PUBLIC "-//W3C//DTD SVG 20010904//EN"
 "http://www.w3.org/TR/2001/REC-SVG-20010904/DTD/svg10.dtd">
<svg version="1.0" xmlns="http://www.w3.org/2000/svg"
 width="791.000000pt" height="360.000000pt" viewBox="0 0 791.000000 360.000000"
 preserveAspectRatio="xMidYMid meet">
<metadata>
Created by potrace 1.16, written by Peter Selinger 2001-2019
</metadata>
<g transform="translate(0.000000,360.000000) scale(0.100000,-0.100000)"
fill="#000000" stroke="none">
<path d="M1145 2211 c-267 -267 -483 -490 -488 -505 -5 -15 -6 -44 -2 -64 6
-32 65 -96 463 -495 318 -318 467 -460 489 -468 72 -23 69 -26 546 449 247
246 455 459 463 474 18 34 18 82 0 116 -8 15 -174 186 -368 380 l-354 352 -59
0 -59 0 -358 -357 c-277 -277 -361 -366 -369 -394 -22 -72 -7 -93 265 -363
138 -136 266 -255 284 -262 73 -32 84 -24 360 250 140 138 260 263 268 278 15
28 17 81 6 110 -4 9 -71 84 -149 167 -234 245 -240 246 -461 27 -85 -83 -160
-163 -168 -178 -8 -15 -14 -46 -14 -69 0 -39 5 -48 73 -115 113 -113 154 -113
277 2 87 83 103 113 75 144 -30 33 -54 23 -134 -55 -43 -41 -82 -75 -87 -75
-15 0 -104 94 -104 110 0 17 266 284 291 293 19 6 309 -279 309 -303 0 -17
-479 -500 -496 -500 -5 0 -121 112 -258 249 -216 216 -247 251 -238 267 14 26
675 684 687 684 16 0 695 -684 695 -700 0 -16 -869 -890 -885 -890 -13 0 -895
882 -895 895 0 5 211 221 470 480 317 318 470 477 470 491 0 24 -29 54 -51 54
-8 0 -231 -215 -494 -479z"/>
<path d="M3250 2411 c0 -154 1 -161 20 -161 18 0 20 7 20 60 l0 60 56 0 c69 0
92 12 110 57 19 44 11 83 -22 114 -22 20 -38 24 -105 28 l-79 3 0 -161z m163
97 c44 -51 6 -108 -73 -108 l-50 0 0 63 c0 35 2 66 5 69 13 13 101 -5 118 -24z"/>
<path d="M3530 2410 c0 -153 1 -160 20 -160 18 0 20 7 20 60 l0 60 39 0 c38 0
41 -2 72 -60 25 -47 37 -60 55 -60 24 0 24 0 -11 63 l-35 64 24 22 c50 47 39
132 -20 157 -18 8 -63 14 -99 14 l-65 0 0 -160z m163 99 c21 -26 22 -48 1 -77
-12 -18 -25 -22 -70 -22 l-54 0 0 58 c0 32 2 61 5 64 3 3 27 4 53 2 32 -3 52
-11 65 -25z"/>
<path d="M3875 2559 c-38 -18 -69 -77 -73 -139 -8 -106 45 -170 141 -170 58 0
92 20 118 71 31 63 20 169 -23 213 -36 35 -116 48 -163 25z m138 -59 c22 -25
27 -39 27 -85 0 -66 -15 -102 -51 -121 -81 -41 -149 13 -149 119 0 114 101
165 173 87z"/>
<path d="M4110 2564 c0 -4 25 -46 55 -94 52 -83 55 -90 55 -154 0 -59 2 -66
20 -66 18 0 20 7 20 67 0 63 3 71 55 155 30 48 55 90 55 93 0 3 -9 5 -20 5
-13 0 -32 -21 -61 -70 -23 -38 -45 -70 -49 -70 -4 0 -27 32 -50 70 -28 47 -49
70 -61 70 -11 0 -19 -3 -19 -6z"/>
<path d="M4427 2563 c-4 -3 -7 -75 -7 -160 l0 -153 100 0 c81 0 100 3 100 15
0 11 -18 15 -77 17 l-78 3 -3 52 -3 52 73 3 c57 2 73 6 73 18 0 12 -16 16 -72
18 l-73 3 0 49 0 50 53 1 c28 1 59 3 67 4 8 1 21 3 28 4 6 0 12 8 12 16 0 12
-17 15 -93 15 -52 0 -97 -3 -100 -7z"/>
<path d="M4744 2552 c-87 -55 -87 -230 -1 -287 66 -43 195 1 197 68 0 27 -18
20 -56 -19 -31 -33 -38 -36 -75 -31 -51 7 -76 29 -90 80 -21 78 9 150 70 168
31 9 43 8 69 -5 17 -9 36 -25 42 -36 12 -23 40 -27 40 -5 0 8 -13 29 -28 46
-24 27 -37 33 -83 36 -41 3 -61 0 -85 -15z"/>
<path d="M4990 2555 c0 -16 4 -17 60 -19 l35 -1 3 -142 c2 -135 4 -143 22
-143 19 0 20 7 20 140 0 126 2 140 18 141 9 1 24 3 32 4 8 1 23 3 33 4 9 0 17
8 17 16 0 13 -20 15 -120 15 -100 0 -120 -2 -120 -15z"/>
<path d="M5332 2550 c-86 -53 -84 -229 2 -285 34 -23 105 -22 143 0 86 50 95
202 18 275 -36 33 -118 39 -163 10z m113 -24 c95 -40 84 -215 -15 -239 -75
-19 -125 30 -125 122 0 60 18 96 57 118 30 16 42 16 83 -1z"/>
<path d="M3125 1998 c-3 -7 -4 -233 -3 -503 l3 -490 105 0 c86 0 105 3 106 15
1 8 2 88 2 178 l2 163 76 -3 76 -3 95 -177 95 -178 114 0 c63 0 114 3 114 6 0
3 -45 88 -100 189 -55 100 -100 186 -100 191 1 5 20 22 45 37 151 96 167 357
29 491 -81 78 -163 96 -452 96 -153 0 -204 -3 -207 -12z m455 -186 c99 -49
109 -202 17 -257 -25 -16 -55 -20 -147 -23 l-115 -4 2 149 c2 81 3 149 3 151
0 1 46 2 103 2 77 0 110 -4 137 -18z"/>
<path d="M4034 1996 c-3 -7 -4 -175 -2 -372 l3 -359 26 -56 c66 -140 203 -219
381 -219 180 0 325 77 389 206 24 49 24 51 27 432 l3 383 -103 -3 -103 -3 -5
-357 -5 -356 -30 -38 c-44 -54 -88 -74 -163 -74 -34 0 -77 6 -95 14 -43 17
-93 76 -106 123 -7 23 -11 168 -11 366 l0 327 -100 0 c-76 0 -102 -3 -106 -14z"/>
<path d="M5040 1505 l0 -505 105 0 105 0 0 315 c0 173 3 315 8 315 4 -1 90
-122 192 -270 101 -148 199 -290 217 -315 l33 -45 90 0 90 0 -2 503 -3 502
-102 3 -103 3 0 -316 c0 -173 -3 -315 -7 -315 -5 0 -89 118 -188 263 -98 144
-196 286 -217 315 l-39 52 -89 0 -90 0 0 -505z"/>
<path d="M6345 1998 c-3 -7 -79 -227 -169 -488 -90 -261 -167 -483 -171 -492
-7 -17 2 -18 109 -18 l115 0 36 115 36 115 182 0 183 0 37 -115 38 -115 110 0
c83 0 109 3 109 13 0 7 -65 200 -144 427 -78 228 -153 447 -166 485 -13 39
-28 73 -34 77 -20 14 -266 9 -271 -4z m207 -416 c32 -97 58 -178 58 -179 0 -2
-57 -3 -126 -3 -97 0 -125 3 -122 13 3 6 26 79 52 160 58 183 65 201 73 193 4
-3 33 -86 65 -184z"/>
</g>
</svg>
