<svg width="500" height="511" viewBox="0 0 500 511" fill="none" xmlns="http://www.w3.org/2000/svg">
<path fill-rule="evenodd" clip-rule="evenodd" d="M240.704 4.53849C245.64 -0.403942 253.65 -0.403942 258.586 4.53849C263.522 9.48091 263.522 17.506 258.586 22.4484L27.8232 253.568C24.4525 256.944 24.4525 262.417 27.8232 265.794L244.626 482.931C246.245 484.549 248.439 485.461 250.727 485.461C253.018 485.461 255.212 484.549 256.831 482.931L472.189 267.239C473.806 265.618 474.716 263.42 474.716 261.126C474.716 258.834 473.806 256.634 472.189 255.013L305.197 87.7652C301.828 84.3896 296.364 84.3896 292.992 87.7652L126.724 254.29C123.353 257.667 123.353 263.14 126.724 266.516L244.264 384.238C245.883 385.86 248.077 386.769 250.368 386.769C252.656 386.769 254.852 385.86 256.469 384.238L374.009 266.516C375.628 264.895 376.538 262.695 376.538 260.403C376.538 258.112 375.628 255.912 374.009 254.29L305.921 186.094C304.302 184.475 302.106 183.564 299.817 183.564C297.529 183.564 295.332 184.475 293.714 186.094L226.56 253.354C224.981 254.936 224.093 257.081 224.093 259.318C224.093 261.555 224.981 263.703 226.56 265.285L244.985 283.739C246.604 285.36 248.801 286.271 251.089 286.271C253.377 286.271 255.574 285.36 257.193 283.739L288.711 252.172C293.644 247.228 301.657 247.228 306.593 252.172C311.526 257.113 311.526 265.138 306.593 270.082L275.075 301.649C268.713 308.02 260.086 311.598 251.089 311.598C242.092 311.598 233.465 308.02 227.103 301.649L208.678 283.195C202.356 276.863 198.803 268.274 198.803 259.318C198.803 250.365 202.356 241.776 208.678 235.444L275.831 168.184C282.193 161.815 290.82 158.235 299.817 158.235C308.814 158.235 317.442 161.815 323.803 168.184L391.891 236.38C398.253 242.752 401.828 251.392 401.828 260.403C401.828 269.414 398.253 278.055 391.891 284.426L274.351 402.148C267.992 408.52 259.362 412.098 250.368 412.098C241.371 412.098 232.743 408.52 226.382 402.148L108.841 284.426C95.5945 271.16 95.5945 249.649 108.841 236.38L275.11 69.8553C288.356 56.5883 309.833 56.5883 323.079 69.8553L490.072 237.105C496.433 243.474 500.006 252.117 500.006 261.126C500.006 270.137 496.433 278.778 490.072 285.149L274.713 500.84C268.352 507.209 259.724 510.79 250.727 510.79C241.733 510.79 233.105 507.209 226.744 500.84L9.94091 283.701C-3.30583 270.435 -3.30583 248.924 9.94091 235.658L240.704 4.53849Z" fill="#F67B01"/>
</svg>
